<svg xmlns="http://www.w3.org/2000/svg" data-name="Layer 1" width="100" height="125"><rect id="backgroundrect" width="100%" height="100%" x="0" y="0" fill="none" stroke="none"/><title>Smighty</title><g class="currentLayer" style=""><title>Layer 1</title><path d="M78.12,50h0L60.22,32.12a16.93,16.93,0,0,0-8,8L62.21,50,52.27,60a16.93,16.93,0,0,0,8,8L78.12,50Z" id="svg_1" class="" fill="#dadada" fill-opacity="1"/><path d="M52.1,50,34.2,32.12a16.93,16.93,0,0,0-8,8L36.19,50,26.26,60a16.93,16.93,0,0,0,8,8L52.11,50h0Z" id="svg_2" class="" fill="#dadada" fill-opacity="1"/><path d="M81.82,18.18a45,45,0,1,0,0,63.64A45,45,0,0,0,81.82,18.18Zm-8,55.69a33.75,33.75,0,1,1,0-47.73A33.75,33.75,0,0,1,73.86,73.87Z" id="svg_3" class="selected" fill="#dadada" fill-opacity="1"/></g></svg>