<svg xmlns="http://www.w3.org/2000/svg" xmlns:xlink="http://www.w3.org/1999/xlink" version="1.1" enable-background="new 0 0 100 100" xml:space="preserve" width="100" height="125"><rect id="backgroundrect" width="100%" height="100%" x="0" y="0" fill="none" stroke="none"/><g class="currentLayer" style=""><title>Layer 1</title><path d="M30.254,51.909c-6.001-0.984-11.116,4.13-10.132,10.132c0.596,3.634,3.527,6.565,7.161,7.161  c6.001,0.984,11.116-4.13,10.132-10.132C36.82,55.437,33.889,52.505,30.254,51.909z" id="svg_1" class="selected" fill="#ffffff" fill-opacity="1"/><path d="M13.446,84.987h30.646c0.847,0,1.524-0.726,1.449-1.57c-0.497-5.593-3.62-10.41-8.099-13.162  c-0.504-0.31-1.142-0.303-1.62,0.045c-1.983,1.441-4.419,2.295-7.053,2.295s-5.07-0.854-7.053-2.295  c-0.478-0.348-1.117-0.354-1.62-0.045c-4.479,2.752-7.602,7.569-8.099,13.162C11.922,84.26,12.599,84.987,13.446,84.987z" id="svg_2" class="selected" fill="#ffffff" fill-opacity="1"/><path d="M27.284,27.966c6.001,0.984,11.116-4.13,10.132-10.132c-0.596-3.634-3.527-6.565-7.161-7.161  c-6.001-0.984-11.116,4.13-10.132,10.132C20.719,24.439,23.65,27.37,27.284,27.966z" id="svg_3" class="selected" fill="#ffffff" fill-opacity="1"/><path d="M11.997,42.18c-0.075,0.844,0.602,1.57,1.449,1.57h30.646c0.847,0,1.524-0.726,1.449-1.57  c-0.497-5.593-3.62-10.41-8.099-13.162c-0.504-0.31-1.142-0.303-1.62,0.045c-1.983,1.441-4.419,2.295-7.053,2.295  s-5.07-0.854-7.053-2.295c-0.478-0.348-1.117-0.354-1.62-0.045C15.617,31.771,12.494,36.588,11.997,42.18z" id="svg_4" class="selected" fill="#ffffff" fill-opacity="1"/><path d="M73.921,51.909c-6.001-0.984-11.116,4.13-10.132,10.132c0.596,3.634,3.527,6.565,7.161,7.161  c6.001,0.984,11.116-4.13,10.132-10.132C80.486,55.437,77.555,52.505,73.921,51.909z" id="svg_5" class="selected" fill="#ffffff" fill-opacity="1"/><path d="M57.113,84.987h30.646c0.847,0,1.524-0.726,1.449-1.57c-0.497-5.593-3.62-10.41-8.099-13.162  c-0.504-0.31-1.142-0.303-1.62,0.045c-1.983,1.441-4.419,2.295-7.053,2.295c-2.634,0-5.07-0.854-7.053-2.295  c-0.478-0.348-1.117-0.354-1.62-0.045c-4.479,2.752-7.603,7.569-8.099,13.162C55.589,84.26,56.266,84.987,57.113,84.987z" id="svg_6" class="selected" fill="#ffffff" fill-opacity="1"/><path d="M70.951,27.966c6.001,0.984,11.116-4.13,10.132-10.132c-0.596-3.634-3.527-6.565-7.161-7.161  c-6.001-0.984-11.116,4.13-10.132,10.132C64.385,24.439,67.317,27.37,70.951,27.966z" id="svg_7" class="selected" fill="#ffffff" fill-opacity="1"/><path d="M55.664,42.18c-0.075,0.844,0.602,1.57,1.449,1.57h30.646c0.847,0,1.524-0.726,1.449-1.57  c-0.497-5.593-3.62-10.41-8.099-13.162c-0.504-0.31-1.142-0.303-1.62,0.045c-1.983,1.441-4.419,2.295-7.053,2.295  c-2.634,0-5.07-0.854-7.053-2.295c-0.478-0.348-1.117-0.354-1.62-0.045C59.283,31.771,56.16,36.588,55.664,42.18z" id="svg_8" class="selected" fill="#ffffff" fill-opacity="1"/></g></svg>