<svg xmlns="http://www.w3.org/2000/svg" xmlns:xlink="http://www.w3.org/1999/xlink" version="1.1" x="0px" y="0px" viewBox="0 0 160 157.91625" enable-background="new 0 0 160 126.333" xml:space="preserve"><g><path fill="#FFFFFF" d="M17.003,59.401c0.053-0.006,5.176-0.383,8.53,3.529c4.312,5.031,8.62,5.725,12.634,5.725   c2.197,0,4.882-1.729,7.99-3.73c4.029-2.596,8.597-5.537,13.135-5.537c3.411,0,5.076,1.65,7.184,3.74   c2.613,2.591,5.575,5.527,12.441,5.527c6.479,0,8.662-2.698,10.588-5.079c1.818-2.248,3.388-4.188,8.537-4.188   c5.193,0,7.234,1.966,9.598,4.243c2.444,2.355,5.215,5.024,11.777,5.024c6.512,0,8.738-2.642,10.703-4.972   c1.942-2.305,3.621-4.296,9.297-4.296c0.553,0,1-0.447,1-1s-0.447-1-1-1c-6.605,0-8.848,2.66-10.826,5.007   c-1.928,2.286-3.592,4.261-9.174,4.261c-5.756,0-8.007-2.169-10.39-4.465c-2.451-2.361-4.985-4.803-10.985-4.803   c-0.896,0-1.695,0.062-2.432,0.165c-6.215-5.6-36.049-32.272-40.565-32.272c-0.011,0-0.021,0-0.032,0   c-2.308,0.068-5.553,2.629-9.66,5.872c-4.242,3.348-9.051,7.143-12.909,8.028c-7.481,1.717-10.278,2.161-10.306,2.165   c-0.295,0.047-0.555,0.223-0.707,0.479c-0.151,0.258-0.181,0.569-0.078,0.851c0.03,0.083,3.15,8.358,12.255,6.586   c7.646-1.483,17.691-7.496,19.913-8.867c1.589,0.647,6.995,3.077,8.604,6.74c0.596,1.355,0.594,2.707-0.004,4.134   c-1.35,3.218-2.068,5.056-2.382,6.148c-0.152-0.006-0.288-0.029-0.446-0.029c-5.127,0-10.168,3.247-14.218,5.855   c-2.725,1.755-5.298,3.412-6.907,3.412c-4.203,0-7.528-0.841-11.116-5.025c-4.04-4.715-9.969-4.241-10.223-4.221   c-0.549,0.049-0.953,0.532-0.906,1.082C15.97,59.039,16.441,59.458,17.003,59.401z M63.964,52.042   c0.812-1.934,0.808-3.856-0.01-5.716c-2.233-5.076-9.875-7.87-10.199-7.987c-0.289-0.103-0.611-0.068-0.874,0.097   c-0.114,0.073-11.559,7.292-19.654,8.863c-5.609,1.095-8.396-2.355-9.463-4.212c1.491-0.282,4.352-0.861,9.127-1.957   c4.297-0.986,9.293-4.93,13.701-8.408c3.359-2.651,6.833-5.394,8.473-5.441c2.637,0.098,21.411,15.771,38.179,30.835   c-2.646,0.939-4.029,2.641-5.293,4.202c-1.883,2.328-3.509,4.338-9.033,4.338c-6.043,0-8.58-2.516-11.033-4.947   c-1.682-1.667-3.422-3.361-6.133-4.021C62.006,56.907,62.596,55.305,63.964,52.042z"/><path fill="#FFFFFF" d="M139.417,74.782c-6.605,0-8.848,2.66-10.826,5.007c-1.928,2.286-3.592,4.261-9.174,4.261   c-5.756,0-8.007-2.169-10.39-4.465c-2.451-2.361-4.985-4.803-10.985-4.803c-6.104,0-8.223,2.619-10.092,4.93   c-1.883,2.328-3.509,4.338-9.033,4.338c-6.043,0-8.58-2.516-11.033-4.947c-2.143-2.124-4.357-4.32-8.592-4.32   c-5.127,0-10.168,3.247-14.218,5.855c-2.725,1.755-5.298,3.412-6.907,3.412c-4.203,0-7.528-0.841-11.116-5.025   c-4.04-4.714-9.969-4.244-10.223-4.221c-0.549,0.049-0.953,0.532-0.906,1.082c0.048,0.548,0.52,0.975,1.081,0.91   c0.053-0.006,5.176-0.383,8.53,3.529c4.312,5.031,8.62,5.725,12.634,5.725c2.197,0,4.882-1.729,7.99-3.73   c4.029-2.596,8.597-5.537,13.135-5.537c3.411,0,5.076,1.65,7.184,3.74c2.613,2.591,5.575,5.527,12.441,5.527   c6.479,0,8.662-2.698,10.588-5.079c1.818-2.248,3.388-4.188,8.537-4.188c5.193,0,7.234,1.966,9.598,4.243   c2.444,2.355,5.215,5.024,11.777,5.024c6.512,0,8.738-2.642,10.703-4.972c1.942-2.305,3.621-4.296,9.297-4.296c0.553,0,1-0.447,1-1   S139.97,74.782,139.417,74.782z"/><path fill="#FFFFFF" d="M139.417,92.177c-6.605,0-8.848,2.66-10.826,5.007c-1.928,2.286-3.592,4.261-9.174,4.261   c-5.756,0-8.007-2.169-10.39-4.465c-2.451-2.361-4.985-4.803-10.985-4.803c-6.104,0-8.223,2.619-10.092,4.93   c-1.883,2.328-3.509,4.338-9.033,4.338c-6.043,0-8.58-2.516-11.033-4.947c-2.143-2.124-4.357-4.32-8.592-4.32   c-5.127,0-10.168,3.247-14.218,5.855c-2.725,1.755-5.298,3.412-6.907,3.412c-4.203,0-7.528-0.841-11.116-5.025   c-4.04-4.715-9.969-4.246-10.223-4.221c-0.549,0.049-0.953,0.532-0.906,1.082c0.048,0.549,0.52,0.962,1.081,0.91   c0.053-0.006,5.176-0.383,8.53,3.529c4.312,5.031,8.62,5.725,12.634,5.725c2.197,0,4.882-1.729,7.99-3.73   c4.029-2.596,8.597-5.537,13.135-5.537c3.411,0,5.076,1.65,7.184,3.74c2.613,2.591,5.575,5.527,12.441,5.527   c6.479,0,8.662-2.698,10.588-5.079c1.818-2.248,3.388-4.188,8.537-4.188c5.193,0,7.234,1.966,9.598,4.243   c2.444,2.355,5.215,5.024,11.777,5.024c6.512,0,8.738-2.642,10.703-4.972c1.942-2.305,3.621-4.296,9.297-4.296c0.553,0,1-0.447,1-1   S139.97,92.177,139.417,92.177z"/><path fill="#FFFFFF" d="M103.292,52.03c7.03,0,12.75-5.72,12.75-12.75s-5.72-12.75-12.75-12.75s-12.75,5.72-12.75,12.75   S96.262,52.03,103.292,52.03z M103.292,28.53c5.928,0,10.75,4.822,10.75,10.75s-4.822,10.75-10.75,10.75s-10.75-4.822-10.75-10.75   S97.364,28.53,103.292,28.53z"/></g></svg>