<svg xmlns="http://www.w3.org/2000/svg" xmlns:xlink="http://www.w3.org/1999/xlink" version="1.1" enable-background="new 0 0 512 512" xml:space="preserve" width="512" height="640"><rect id="backgroundrect" width="100%" height="100%" x="0" y="0" fill="none" stroke="none"/><g class="currentLayer" style=""><title>Layer 1</title><g id="svg_1" class="selected" fill="#ffffff" fill-opacity="1"><path d="M192.001,383.998h-85.327c-5.891,0-10.672,4.773-10.672,10.664c0,5.89,4.781,10.671,10.672,10.671h85.327   c5.891,0,10.672-4.781,10.672-10.671C202.673,388.771,197.892,383.998,192.001,383.998z" id="svg_2" fill="#ffffff" fill-opacity="1"/><path d="M202.673,0.005H96.002v149.333l-63.999,63.999v21.328v213.333v42.663c0,11.781,9.546,21.335,21.328,21.335h191.997   c11.781,0,21.344-9.554,21.344-21.335v-42.663V234.665v-21.328l-63.999-63.999V0.005z M181.329,21.34v42.663H117.33V21.34H181.329z    M53.332,256h191.997v170.661H53.332V256z M245.328,490.66H53.332v-42.663h191.997V490.66z M245.328,222.173v12.492H53.332v-12.492   l57.749-57.757l6.25-6.242v-8.836V85.339h63.999v63.999v8.836l6.25,6.242L245.328,222.173z" id="svg_3" fill="#ffffff" fill-opacity="1"/><path d="M149.33,277.336c-41.234,0-74.655,19.101-74.655,42.663s33.421,42.664,74.655,42.664c41.249,0,74.67-19.102,74.67-42.664   S190.579,277.336,149.33,277.336z M191.548,331.647c-10.766,6.156-26.156,9.688-42.218,9.688c-16.047,0-31.438-3.531-42.203-9.688   c-7.641-4.367-11.125-9.102-11.125-11.648s3.484-7.281,11.125-11.648c10.765-6.156,26.156-9.688,42.203-9.688   c16.062,0,31.452,3.531,42.218,9.688c7.641,4.367,11.125,9.102,11.125,11.648S199.188,327.28,191.548,331.647z" id="svg_4" fill="#ffffff" fill-opacity="1"/><path d="M309.327,319.999v181.333c0,5.891,4.781,10.663,10.671,10.663h149.326c5.891,0,10.672-4.772,10.672-10.663V319.999H309.327   z M458.668,341.335v21.328H330.67v-21.328H458.668z M338.17,452.841l7.781-19.867l19.875,7.781l-7.016,17.906h-5.75L338.17,452.841   z M447.996,490.66c0-5.891-4.781-10.663-10.672-10.663s-10.655,4.772-10.655,10.663h-21.344c0-5.891-4.766-10.663-10.656-10.663   s-10.671,4.772-10.671,10.663H362.67c0-5.891-4.781-10.663-10.672-10.663s-10.672,4.772-10.672,10.663H330.67v-10.663h18.359h2.969   h21.359h21.312h25.344h17.312h13.688h7.656v10.663H447.996z M419.731,450.974l14.312-15.82l15.828,14.312l-8.328,9.195h-13.312   L419.731,450.974z M432.543,405.021l-42.937,47.461l6.828,6.18h-14.718l11.749-29.992l-59.593-23.336l-3.203,8.18v-29.515h127.998   v44.663L432.543,405.021z" id="svg_5" fill="#ffffff" fill-opacity="1"/></g></g></svg>