<svg xmlns="http://www.w3.org/2000/svg" data-name="Layer 1" width="100" height="125" style=""><rect id="backgroundrect" width="100%" height="100%" x="0" y="0" fill="none" stroke="none"/><title/><g class="currentLayer" style=""><title>Layer 1</title><path d="M94.5,41.2a1.49,1.49,0,0,0,0-.16s0-.08,0-.12a1.5,1.5,0,0,0-.56-1.5L51.4,7.3a1.5,1.5,0,0,0-1.81,0L6.1,40l0,0L6,40.14l-.08.08-.06.07,0,0,0,0-.06.09-.05.09,0,.08,0,.09,0,.1,0,.1,0,.09v.1s0,.07,0,.11,0,0,0,0V90a4.5,4.5,0,0,0,4.5,4.5H90A4.5,4.5,0,0,0,94.5,90V41.24S94.5,41.22,94.5,41.2Zm-44-30.83L89.36,39.74H11.49Zm38,32.36-39,29.6L11.38,42.74ZM90,91.46H10A1.5,1.5,0,0,1,8.5,90V44.31L48.58,75.42a1.5,1.5,0,0,0,1.83,0L91.5,44.26V90A1.5,1.5,0,0,1,90,91.46Z" id="svg_1" class="selected" fill="#ffffff" fill-opacity="1"/></g></svg>