<?xml version="1.0" encoding="utf-8"?>
<!-- Generator: Adobe Illustrator 22.1.0, SVG Export Plug-In . SVG Version: 6.00 Build 0)  -->
<svg version="1.1" id="Layer_1" xmlns="http://www.w3.org/2000/svg" xmlns:xlink="http://www.w3.org/1999/xlink" x="0px" y="0px"
	 viewBox="0 0 100 125" style="enable-background:new 0 0 100 125;" xml:space="preserve">
<style type="text/css">
	.st0{fill:none;}
	.st1{fill:#FFFFFF;}
</style>
<g>
	<path class="st0" d="M80.2,21.1H19.8c-0.6,0-1.1,0.5-1.1,1.1v80.6c0,0.6,0.5,1.1,1.1,1.1h60.5c0.6,0,1.1-0.5,1.1-1.1V22.2
		C81.3,21.6,80.8,21.1,80.2,21.1z M38.9,49.1c0,0,0.6-0.8,2-1.3c0,0,3.2-1,4.5-2c0.2-0.2,0.3-0.4,0.5-0.6c0,0,0,0,0,0
		c0-0.1,0.2-0.7,0.2-0.9c0,0,0,0,0,0.1c0.1-0.4,0-0.7,0-0.7c0,0,0,0,0,0c-0.5-0.8-1-1.6-1.2-2.5c-0.1,0-0.5-0.3-0.6-1
		c0,0-0.3-1.2-0.1-1.6c0,0-0.5-1.2-0.3-3.2c0,0,0.8-4.2,4.3-4.8c0,0,2.9-0.7,4.9,0.5c2.1,0.8,2.5,2.6,2.5,2.6
		c1.1,1.9,0.3,4.4,0.3,4.5c0.2,0.2,0.3,0.7-0.1,1.6c0,0-0.3,1.2-0.8,1.7c-0.3,0.8-0.7,1.6-1.3,2.3c0,0,0,0,0,0c0,0.2,0,0.3,0,0.5
		c0-0.1,0-0.1,0-0.1c0,0.1,0.2,0.7,0.2,1h0c0,0,0,0,0,0c0,0.1,0,0.1,0,0.1c0,0,0,0,0,0c0,0,0,0.1,0,0.1c0.2,0.3,0.7,0.9,2.3,1.5
		c0,0,4.4,1.4,5.1,3c0,0,2.4,1.7,1.8,6.6c0,0,0,0.4-0.8,0.9c0,0-5.4,2.1-13,1.9c0,0-7.5-0.1-12.2-2.2c0,0-0.7-0.2-0.7-1.7
		C36.6,55.2,36.8,52.1,38.9,49.1z M71.6,94.7H28.4c-1.2,0-2.2-1-2.2-2.2s1-2.2,2.2-2.2h43.3c1.2,0,2.2,1,2.2,2.2
		S72.8,94.7,71.6,94.7z M71.6,83.2H28.4c-1.2,0-2.2-1-2.2-2.2c0-1.2,1-2.2,2.2-2.2h43.3c1.2,0,2.2,1,2.2,2.2
		C73.8,82.2,72.8,83.2,71.6,83.2z M71.6,71.6H28.4c-1.2,0-2.2-1-2.2-2.2s1-2.2,2.2-2.2h43.3c1.2,0,2.2,1,2.2,2.2
		S72.8,71.6,71.6,71.6z"/>
	<path class="st1" d="M80.2,17.5H19.8c-2.6,0-4.7,2.1-4.7,4.7v80.6c0,2.6,2.1,4.7,4.7,4.7h60.5c2.6,0,4.7-2.1,4.7-4.7V22.2
		C84.9,19.6,82.8,17.5,80.2,17.5z M81.3,102.8c0,0.6-0.5,1.1-1.1,1.1H19.8c-0.6,0-1.1-0.5-1.1-1.1V22.2c0-0.6,0.5-1.1,1.1-1.1h60.5
		c0.6,0,1.1,0.5,1.1,1.1V102.8z"/>
	<path class="st1" d="M71.6,67.3H28.4c-1.2,0-2.2,1-2.2,2.2s1,2.2,2.2,2.2h43.3c1.2,0,2.2-1,2.2-2.2S72.8,67.3,71.6,67.3z"/>
	<path class="st1" d="M71.6,78.8H28.4c-1.2,0-2.2,1-2.2,2.2c0,1.2,1,2.2,2.2,2.2h43.3c1.2,0,2.2-1,2.2-2.2
		C73.8,79.8,72.8,78.8,71.6,78.8z"/>
	<path class="st1" d="M71.6,90.4H28.4c-1.2,0-2.2,1-2.2,2.2s1,2.2,2.2,2.2h43.3c1.2,0,2.2-1,2.2-2.2S72.8,90.4,71.6,90.4z"/>
	<path class="st1" d="M37.3,56.9c4.7,2.1,12.2,2.2,12.2,2.2c7.6,0.2,13-1.9,13-1.9c0.8-0.5,0.8-0.9,0.8-0.9c0.6-4.9-1.8-6.6-1.8-6.6
		c-0.7-1.6-5.1-3-5.1-3c-1.6-0.6-2.1-1.2-2.3-1.5c0,0,0-0.1,0-0.1c0,0,0,0,0,0c0,0,0,0,0-0.1c0,0,0,0,0,0h0c-0.1-0.2-0.2-0.8-0.2-1
		c0,0,0,0,0,0.1c0-0.1,0-0.3,0-0.5c0,0,0,0,0,0c0.5-0.7,1-1.5,1.3-2.3c0.5-0.5,0.8-1.7,0.8-1.7c0.3-0.9,0.2-1.4,0.1-1.6
		c0-0.1,0.8-2.6-0.3-4.5c0,0-0.4-1.8-2.5-2.6c-2-1.2-4.9-0.5-4.9-0.5c-3.6,0.6-4.3,4.8-4.3,4.8c-0.2,1.9,0.3,3.1,0.3,3.2
		c-0.2,0.5,0.1,1.6,0.1,1.6c0.1,0.7,0.5,0.9,0.6,1c0.2,0.9,0.7,1.8,1.2,2.5c0,0,0,0,0,0c0,0,0.1,0.3,0,0.7c0,0,0-0.1,0-0.1
		c0,0.2-0.2,0.8-0.2,0.9c0,0,0,0,0,0c-0.2,0.2-0.3,0.4-0.5,0.6c-1.3,1-4.5,2-4.5,2c-1.4,0.5-2,1.3-2,1.3c-2.1,3-2.3,6.1-2.3,6.1
		C36.6,56.7,37.3,56.9,37.3,56.9z"/>
</g>
</svg>
