<svg xmlns="http://www.w3.org/2000/svg" data-name="Layer 1" width="100" height="125"><rect id="backgroundrect" width="100%" height="100%" x="0" y="0" fill="none" stroke="none"/><title>Smighty</title><g class="currentLayer" style=""><title>Layer 1</title><path d="M21.88,50h0l17.9,17.88a16.93,16.93,0,0,0,8-8L37.79,50,47.73,40a16.93,16.93,0,0,0-8-8L21.87,50Z" id="svg_1" class="" fill="#dadada" fill-opacity="1"/><path d="M47.9,50,65.8,67.88a16.93,16.93,0,0,0,8-8L63.81,50,73.74,40a16.93,16.93,0,0,0-8-8L47.89,50h0Z" id="svg_2" class="" fill="#dadada" fill-opacity="1"/><path d="M18.18,81.82a45,45,0,1,0,0-63.64A45,45,0,0,0,18.18,81.82Zm8-55.69a33.75,33.75,0,1,1,0,47.73A33.75,33.75,0,0,1,26.13,26.14Z" id="svg_3" class="selected" fill="#dadada" fill-opacity="1"/></g></svg>