<svg xmlns="http://www.w3.org/2000/svg" xmlns:xlink="http://www.w3.org/1999/xlink" version="1.1" style="" xml:space="preserve" width="100" height="125"><rect id="backgroundrect" width="100%" height="100%" x="0" y="0" fill="none" stroke="none"/><style type="text/css">
	.st0{fill:none;stroke:#000000;stroke-width:2;stroke-linecap:round;stroke-linejoin:round;stroke-miterlimit:10;}
</style><g class="currentLayer" style=""><title>Layer 1</title><path d="M89.125,87.914h-3.797V11.086c0-0.335-0.167-0.647-0.446-0.833c-0.278-0.185-0.631-0.218-0.94-0.09l-23.878,10  c-0.372,0.156-0.614,0.52-0.614,0.923v9.975H46.375c-0.552,0-1,0.447-1,1v32.914h-4.209V23.025c0-0.553-0.448-1-1-1h-1.899V11.086  c0-0.553-0.448-1-1-1h-18.08c-0.552,0-1,0.447-1,1v10.939h-1.898c-0.552,0-1,0.447-1,1v64.889h-4.163c-0.552,0-1,0.447-1,1  s0.448,1,1,1h78c0.552,0,1-0.447,1-1S89.677,87.914,89.125,87.914z M61.45,21.751l21.878-9.162v75.325H68.223V32.061  c0-0.553-0.448-1-1-1H61.45V21.751z M66.223,33.061v54.854h-3.994v-6.273c0-2.994-2.436-5.431-5.43-5.431s-5.43,2.437-5.43,5.431  v6.273h-3.994V33.061H66.223z M60.229,87.914h-6.86v-6.273c0-1.892,1.539-3.431,3.43-3.431s3.43,1.539,3.43,3.431V87.914z   M45.375,87.914H35.278v-4.122c1.974-0.457,3.454-2.221,3.454-4.332c0-1.541-0.788-2.901-1.981-3.701  c0.831-0.705,1.37-1.744,1.37-2.916c0-2.119-1.724-3.843-3.843-3.843s-3.843,1.724-3.843,3.843c0,1.173,0.539,2.211,1.37,2.916  c-1.193,0.8-1.981,2.159-1.981,3.701c0,2.111,1.48,3.876,3.454,4.332v4.122h-8.091v-3.359c1.714-0.447,2.989-1.995,2.989-3.847  c0-1.317-0.649-2.477-1.636-3.204c0.677-0.632,1.107-1.525,1.107-2.522c0-1.558-1.042-2.863-2.46-3.295v-4.713h20.188V87.914z   M34.278,74.686c-1.016,0-1.843-0.827-1.843-1.843S33.262,71,34.278,71s1.843,0.827,1.843,1.843S35.294,74.686,34.278,74.686z   M34.278,77.006c1.353,0,2.454,1.101,2.454,2.454s-1.101,2.455-2.454,2.455s-2.454-1.102-2.454-2.455S32.925,77.006,34.278,77.006z   M24.187,73.522c0.805,0,1.46,0.655,1.46,1.46s-0.655,1.46-1.46,1.46s-1.46-0.655-1.46-1.46S23.381,73.522,24.187,73.522z   M24.187,78.72c1.097,0,1.989,0.892,1.989,1.988s-0.892,1.989-1.989,1.989s-1.989-0.893-1.989-1.989S23.09,78.72,24.187,78.72z   M20.187,12.086h16.08v9.939h-16.08V12.086z M17.288,24.025h21.878v40.949H24.187c-0.552,0-1,0.447-1,1v5.713  c-1.418,0.432-2.46,1.737-2.46,3.295c0,0.997,0.43,1.89,1.107,2.522c-0.987,0.727-1.636,1.887-1.636,3.204  c0,1.852,1.275,3.4,2.989,3.847v3.359h-5.898V24.025z" id="svg_1" class="" fill="#ffffff" fill-opacity="1"/><path d="M23.061,34.868c0.552,0,1-0.447,1-1v-4.731c0-0.553-0.448-1-1-1s-1,0.447-1,1v4.731  C22.061,34.421,22.508,34.868,23.061,34.868z" id="svg_2" class="" fill="#ffffff" fill-opacity="1"/><path d="M28.227,34.868c0.552,0,1-0.447,1-1v-4.731c0-0.553-0.448-1-1-1s-1,0.447-1,1v4.731  C27.227,34.421,27.675,34.868,28.227,34.868z" id="svg_3" class="" fill="#ffffff" fill-opacity="1"/><path d="M33.394,34.868c0.552,0,1-0.447,1-1v-4.731c0-0.553-0.448-1-1-1s-1,0.447-1,1v4.731  C32.394,34.421,32.841,34.868,33.394,34.868z" id="svg_4" class="" fill="#ffffff" fill-opacity="1"/><path d="M23.061,44.219c0.552,0,1-0.447,1-1v-4.73c0-0.553-0.448-1-1-1s-1,0.447-1,1v4.73  C22.061,43.771,22.508,44.219,23.061,44.219z" id="svg_5" class="" fill="#ffffff" fill-opacity="1"/><path d="M28.227,44.219c0.552,0,1-0.447,1-1v-4.73c0-0.553-0.448-1-1-1s-1,0.447-1,1v4.73  C27.227,43.771,27.675,44.219,28.227,44.219z" id="svg_6" class="" fill="#ffffff" fill-opacity="1"/><path d="M33.394,44.219c0.552,0,1-0.447,1-1v-4.73c0-0.553-0.448-1-1-1s-1,0.447-1,1v4.73  C32.394,43.771,32.841,44.219,33.394,44.219z" id="svg_7" class="" fill="#ffffff" fill-opacity="1"/><path d="M72.389,34.868c0.552,0,1-0.447,1-1v-4.731c0-0.553-0.448-1-1-1s-1,0.447-1,1v4.731  C71.389,34.421,71.837,34.868,72.389,34.868z" id="svg_8" class="" fill="#ffffff" fill-opacity="1"/><path d="M77.556,34.868c0.552,0,1-0.447,1-1v-4.731c0-0.553-0.448-1-1-1s-1,0.447-1,1v4.731  C76.556,34.421,77.004,34.868,77.556,34.868z" id="svg_9" class="" fill="#ffffff" fill-opacity="1"/><path d="M72.389,44.219c0.552,0,1-0.447,1-1v-4.73c0-0.553-0.448-1-1-1s-1,0.447-1,1v4.73  C71.389,43.771,71.837,44.219,72.389,44.219z" id="svg_10" class="" fill="#ffffff" fill-opacity="1"/><path d="M77.556,44.219c0.552,0,1-0.447,1-1v-4.73c0-0.553-0.448-1-1-1s-1,0.447-1,1v4.73  C76.556,43.771,77.004,44.219,77.556,44.219z" id="svg_11" class="" fill="#ffffff" fill-opacity="1"/><path d="M72.389,53.57c0.552,0,1-0.447,1-1v-4.731c0-0.553-0.448-1-1-1s-1,0.447-1,1v4.731C71.389,53.123,71.837,53.57,72.389,53.57  z" id="svg_12" class="" fill="#ffffff" fill-opacity="1"/><path d="M77.556,53.57c0.552,0,1-0.447,1-1v-4.731c0-0.553-0.448-1-1-1s-1,0.447-1,1v4.731C76.556,53.123,77.004,53.57,77.556,53.57  z" id="svg_13" class="" fill="#ffffff" fill-opacity="1"/><path d="M72.389,62.922c0.552,0,1-0.447,1-1V57.19c0-0.553-0.448-1-1-1s-1,0.447-1,1v4.731  C71.389,62.475,71.837,62.922,72.389,62.922z" id="svg_14" class="" fill="#ffffff" fill-opacity="1"/><path d="M77.556,62.922c0.552,0,1-0.447,1-1V57.19c0-0.553-0.448-1-1-1s-1,0.447-1,1v4.731  C76.556,62.475,77.004,62.922,77.556,62.922z" id="svg_15" class="" fill="#ffffff" fill-opacity="1"/><path d="M72.389,72.272c0.552,0,1-0.447,1-1v-4.731c0-0.553-0.448-1-1-1s-1,0.447-1,1v4.731  C71.389,71.825,71.837,72.272,72.389,72.272z" id="svg_16" class="" fill="#ffffff" fill-opacity="1"/><path d="M52.369,72.272h8.86c0.552,0,1-0.447,1-1s-0.448-1-1-1h-8.86c-0.552,0-1,0.447-1,1S51.816,72.272,52.369,72.272z" id="svg_17" class="" fill="#ffffff" fill-opacity="1"/><path d="M52.369,66.809h8.86c0.552,0,1-0.447,1-1s-0.448-1-1-1h-8.86c-0.552,0-1,0.447-1,1S51.816,66.809,52.369,66.809z" id="svg_18" class="" fill="#ffffff" fill-opacity="1"/><path d="M52.369,61.345h8.86c0.552,0,1-0.447,1-1s-0.448-1-1-1h-8.86c-0.552,0-1,0.447-1,1S51.816,61.345,52.369,61.345z" id="svg_19" class="" fill="#ffffff" fill-opacity="1"/><path d="M52.369,55.88h8.86c0.552,0,1-0.447,1-1s-0.448-1-1-1h-8.86c-0.552,0-1,0.447-1,1S51.816,55.88,52.369,55.88z" id="svg_20" class="" fill="#ffffff" fill-opacity="1"/><path d="M52.369,50.416h8.86c0.552,0,1-0.447,1-1s-0.448-1-1-1h-8.86c-0.552,0-1,0.447-1,1S51.816,50.416,52.369,50.416z" id="svg_21" class="" fill="#ffffff" fill-opacity="1"/><path d="M52.369,44.952h8.86c0.552,0,1-0.447,1-1s-0.448-1-1-1h-8.86c-0.552,0-1,0.447-1,1S51.816,44.952,52.369,44.952z" id="svg_22" class="" fill="#ffffff" fill-opacity="1"/><path d="M52.369,39.488h8.86c0.552,0,1-0.447,1-1s-0.448-1-1-1h-8.86c-0.552,0-1,0.447-1,1S51.816,39.488,52.369,39.488z" id="svg_23" class="" fill="#ffffff" fill-opacity="1"/><path d="M77.556,72.272c0.552,0,1-0.447,1-1v-4.731c0-0.553-0.448-1-1-1s-1,0.447-1,1v4.731  C76.556,71.825,77.004,72.272,77.556,72.272z" id="svg_24" class="" fill="#ffffff" fill-opacity="1"/><path d="M72.389,81.624c0.552,0,1-0.447,1-1v-4.731c0-0.553-0.448-1-1-1s-1,0.447-1,1v4.731  C71.389,81.177,71.837,81.624,72.389,81.624z" id="svg_25" class="" fill="#ffffff" fill-opacity="1"/><path d="M77.556,81.624c0.552,0,1-0.447,1-1v-4.731c0-0.553-0.448-1-1-1s-1,0.447-1,1v4.731  C76.556,81.177,77.004,81.624,77.556,81.624z" id="svg_26" class="" fill="#ffffff" fill-opacity="1"/><path d="M23.061,53.57c0.552,0,1-0.447,1-1v-4.731c0-0.553-0.448-1-1-1s-1,0.447-1,1v4.731C22.061,53.123,22.508,53.57,23.061,53.57  z" id="svg_27" class="" fill="#ffffff" fill-opacity="1"/><path d="M28.227,53.57c0.552,0,1-0.447,1-1v-4.731c0-0.553-0.448-1-1-1s-1,0.447-1,1v4.731C27.227,53.123,27.675,53.57,28.227,53.57  z" id="svg_28" class="" fill="#ffffff" fill-opacity="1"/><path d="M33.394,53.57c0.552,0,1-0.447,1-1v-4.731c0-0.553-0.448-1-1-1s-1,0.447-1,1v4.731C32.394,53.123,32.841,53.57,33.394,53.57  z" id="svg_29" class="" fill="#ffffff" fill-opacity="1"/><path d="M23.061,62.519c0.552,0,1-0.447,1-1v-4.731c0-0.553-0.448-1-1-1s-1,0.447-1,1v4.731  C22.061,62.071,22.508,62.519,23.061,62.519z" id="svg_30" class="" fill="#ffffff" fill-opacity="1"/><path d="M28.227,62.519c0.552,0,1-0.447,1-1v-4.731c0-0.553-0.448-1-1-1s-1,0.447-1,1v4.731  C27.227,62.071,27.675,62.519,28.227,62.519z" id="svg_31" class="" fill="#ffffff" fill-opacity="1"/><path d="M33.394,62.519c0.552,0,1-0.447,1-1v-4.731c0-0.553-0.448-1-1-1s-1,0.447-1,1v4.731  C32.394,62.071,32.841,62.519,33.394,62.519z" id="svg_32" class="" fill="#ffffff" fill-opacity="1"/></g></svg>