<svg xmlns="http://www.w3.org/2000/svg" xmlns:xlink="http://www.w3.org/1999/xlink" version="1.1" style="enable-background:new 0 0 100 100;" xml:space="preserve" width="100" height="125"><rect id="backgroundrect" width="100%" height="100%" x="0" y="0" fill="none" stroke="none"/><g class="currentLayer" style=""><title>Layer 1</title><path d="M45.7,25.9c0-3.3,2.7-5.9,5.9-5.9c3.3,0,5.9,2.7,5.9,5.9s-2.7,5.9-5.9,5.9C48.3,31.9,45.7,29.2,45.7,25.9z M48.8,46.3  c-1.1-0.2-2.2,0.6-2.3,1.8l-1.9,13c0,0.1,0,0.2,0,0.3l-0.3,16.6c0,1.1,0.9,2.1,2,2.1c0,0,0,0,0,0c1.1,0,2-0.9,2.1-2l0.3-16.5  l1.9-12.9C50.7,47.5,50,46.4,48.8,46.3z M68.1,42.5l0.8-2.1c0.4-1.1-0.2-2.3-1.2-2.7c-1.1-0.4-2.3,0.2-2.7,1.2l-1.1,3l-10-0.7  l-8.2-6.5c-0.6-0.4-1.3-0.6-2-0.3c-0.7,0.2-1.2,0.8-1.3,1.5l-9.9,40.7c-0.3,1.1,0.4,2.2,1.5,2.5c0.2,0,0.3,0.1,0.5,0.1  c0.9,0,1.8-0.6,2-1.6L45.7,40l6.1,4.9c0.3,0.3,0.7,0.4,1.1,0.4l9.4,0.7L51.2,76.3c-0.4,1.1,0.2,2.3,1.2,2.7c0.2,0.1,0.5,0.1,0.7,0.1  c0.8,0,1.6-0.5,1.9-1.4l11.6-31.5l0.1,0c1.2,0.1,2.1-0.8,2.2-1.9C69,43.6,68.6,42.9,68.1,42.5z M34.7,50.8c1.6,0,3.1-1.1,3.5-2.8  L41,36.5c0.5-1.9-0.7-3.9-2.7-4.4c-1.9-0.5-3.9,0.7-4.4,2.7l-2.8,11.6c-0.5,1.9,0.7,3.9,2.7,4.4C34.1,50.8,34.4,50.8,34.7,50.8z" id="svg_1" class="selected" fill="#ffffff" fill-opacity="1"/></g></svg>