<svg xmlns="http://www.w3.org/2000/svg" xmlns:xlink="http://www.w3.org/1999/xlink" version="1.1" style="enable-background:new 0 0 64 64;" xml:space="preserve" width="60" height="60"><rect id="backgroundrect" width="100%" height="100%" x="0" y="0" fill="none" stroke="none"/><style type="text/css">
	.st0{display:none;}
	.st1{display:inline;}
	.st2{fill:none;stroke:#FFFFF;stroke-width:0.1;stroke-miterlimit:10;}
</style><g class="currentLayer" style=""><title>Layer 1</title><g class="st0" id="svg_1"><g class="st1" id="svg_2"><rect x="0" y="0" class="st2" width="60" height="60" id="svg_3"/><line class="st2" x1="30" y1="0" x2="30" y2="60" id="svg_4"/><line class="st2" x1="60" y1="30" x2="0" y2="30" id="svg_5"/><line class="st2" x1="0" y1="0" x2="60" y2="60" id="svg_6"/><rect x="8" y="8" class="st2" width="44" height="44" id="svg_7"/><line class="st2" x1="60" y1="0" x2="0" y2="60" id="svg_8"/><line class="st2" x1="0" y1="30" x2="30" y2="0" id="svg_9"/><line class="st2" x1="30" y1="0" x2="60" y2="30" id="svg_10"/><line class="st2" x1="60" y1="30" x2="30" y2="60" id="svg_11"/><line class="st2" x1="30" y1="60" x2="0" y2="30" id="svg_12"/><circle class="st2" cx="30" cy="30" r="21" id="svg_13"/></g></g><rect x="6" y="16" width="18" height="15" id="svg_14" class="" fill="#ffffff" fill-opacity="1"/><rect x="6" y="35" width="18" height="15" id="svg_15" class="" fill="#ffffff" fill-opacity="1"/><rect x="28" y="16" width="18" height="15" id="svg_16" class="" fill="#ffffff" fill-opacity="1"/><path d="M26,54 H2 V12 h48 v21 h2 V0 H0 v56 h26 V54 zM40,6 h10 v4 H40 V6 zM10,2 h2 v2 h-2 V2 zM6,2 h2 v2 H6 V2 zM2,2 h2 v2 H2 V2 zM2,6 h36 v4 H2 V6 z" id="svg_17" class="" fill="#ffffff" fill-opacity="1"/><path d="M28,35 v25 h32 V35 H28 zM46,37 c1.7000000000000002,0 3,1.3 3,3 s-1.3,3 -3,3 s-3,-1.3 -3,-3 S44.3,37 46,37 zM58,58 H30 v-8 l9,-9 l10,11 l-2,-5 l4,-3 l7,5 V58 z" id="svg_18" class="selected" fill="#ffffff" fill-opacity="1"/></g></svg>