<svg xmlns="http://www.w3.org/2000/svg" xmlns:xlink="http://www.w3.org/1999/xlink" version="1.1" style="enable-background:new 0 0 512 512;" xml:space="preserve" width="512" height="640"><rect id="backgroundrect" width="100%" height="100%" x="0" y="0" fill="none" stroke="none"/><style type="text/css">
	.st0{fill:#FFFFFF;stroke:#000000;stroke-width:14;stroke-miterlimit:10;}
</style><g class="currentLayer" style=""><title>Layer 1</title><g id="svg_1" class="selected" fill="#b6b6b6" fill-opacity="1" stroke="#ffffff" stroke-opacity="1" opacity="0.7"><g id="svg_2" fill="#b6b6b6" fill-opacity="1" stroke="#ffffff" stroke-opacity="1" opacity="0.7"><g id="svg_3" fill="#b6b6b6" fill-opacity="1" stroke="#ffffff" stroke-opacity="1" opacity="0.7"><path class="st0" d="M11.9,256c0,35.2,28.4,63.6,63.6,63.6s63.6-28.4,63.6-63.6c0-35.2-28.4-63.6-63.6-63.6S11.9,220.8,11.9,256z     " id="svg_4" fill="#b6b6b6" fill-opacity="1" stroke="#ffffff" stroke-opacity="1" opacity="0.7"/><path class="st0" d="M192.1,256c0,35.2,28.4,63.6,63.6,63.6s63.6-28.4,63.6-63.6c0-35.2-28.4-63.6-63.6-63.6     S192.1,220.8,192.1,256z" id="svg_5" fill="#b6b6b6" fill-opacity="1" stroke="#ffffff" stroke-opacity="1" opacity="0.7"/><path class="st0" d="M372.9,256c0,35.2,28.4,63.6,63.6,63.6s63.6-28.4,63.6-63.6c0-35.2-28.4-63.6-63.6-63.6     S372.9,220.8,372.9,256z" id="svg_6" fill="#b6b6b6" fill-opacity="1" stroke="#ffffff" stroke-opacity="1" opacity="0.7"/></g></g></g></g></svg>