<svg xmlns="http://www.w3.org/2000/svg" xmlns:xlink="http://www.w3.org/1999/xlink" version="1.1" enable-background="new 0 0 48 48" xml:space="preserve" width="48" height="60"><rect id="backgroundrect" width="100%" height="100%" x="0" y="0" fill="none" stroke="none"/><g class="currentLayer" style=""><title>Layer 1</title><g id="svg_1" class="selected" fill="#ffffff" fill-opacity="1"><path d="M5.6,37.5H11c0.6,0,1-0.4,1-1v-0.3c1.2,0.1,2.4,0.4,3.5,1c1.7,0.8,3.6,1.2,5.4,1.2h2.3c2,0,3.7-1.6,3.7-3.6   c0-0.2,0-0.4,0-0.5c0.5-0.3,1-0.7,1.3-1.1c0.4-0.6,0.6-1.4,0.6-2.1c0-0.1,0-0.3,0-0.4c0.2-0.1,0.4-0.3,0.5-0.5   c0.5-0.6,0.8-1.5,0.6-2.3c-0.1-0.6-0.4-1-0.7-1.4c0.3-0.3,0.4-0.7,0.5-1.2c0.1-0.8-0.1-1.6-0.6-2.3c-0.5-0.6-1.3-1-2.1-1h-2.5   c0,0-0.2,0-0.6,0.1c-0.3,0-0.8,0.1-1.4,0.1c0.6-2.2,0.3-4.4,0-6.4l0-0.2c-0.2-1.7-1.6-2.9-3.3-2.9c0,0-0.1,0-0.1,0   c-0.9,0-1.7,0.4-2.3,1.1c-0.6,0.7-0.9,1.6-0.8,2.4c0.1,1.2,0,2.5-0.3,3.9c0,0.1-0.1,0.2-0.1,0.3c-0.5,1.6-1.9,2.7-3.6,2.9v-0.3   c0-0.6-0.4-1-1-1H5.6c-0.6,0-1,0.4-1,1v13.3C4.6,37.1,5,37.5,5.6,37.5z M17.6,21.2c0-0.2,0.1-0.3,0.1-0.5c0.3-1.6,0.5-3.1,0.4-4.5   c0-0.4,0.1-0.7,0.3-1c0.2-0.2,0.4-0.4,0.9-0.4c0.6,0,1.2,0.5,1.3,1.2l0,0.2c0.3,2.3,0.6,4.6-0.4,6.8c-0.2,0.3-0.1,0.7,0.1,1   s0.6,0.5,0.9,0.4c1.5-0.1,2.5-0.3,3.1-0.3c0.2,0,0.4,0,0.4,0h2.5c0.2,0,0.4,0.1,0.6,0.3c0.1,0.1,0.2,0.3,0.2,0.6   c-0.1,0.4-0.4,0.6-0.9,0.6c-0.6,0-1,0.4-1,1s0.4,1,1,1h0.2c0.4,0,0.8,0.3,0.9,0.6c0.1,0.3-0.1,0.6-0.2,0.7   c-0.2,0.2-0.4,0.3-0.6,0.3c-0.6,0-1,0.4-1,1c0,0.4,0.3,0.8,0.6,0.9c0,0.3-0.1,0.6-0.3,1c-0.2,0.2-1,0.7-1.2,0.7c0,0,0,0,0,0   s0,0,0,0h0c0,0,0,0,0,0h0c0,0,0,0,0,0c0,0,0,0,0,0h0c-0.5,0-1,0.5-1,1c0,0.4,0.3,0.8,0.7,1c0,0,0,0,0,0c0,0.9-0.8,1.6-1.7,1.6H21   c-1.6,0-3.1-0.3-4.7-1.1c-1.3-0.6-2.8-1-4.3-1.1v-8.7C14.6,25.3,16.9,23.6,17.6,21.2z M6.6,24.2H10v0.3v10.6v0.4H6.6V24.2z" id="svg_2" fill="#ffffff" fill-opacity="1"/><path d="M47,0H1C0.4,0,0,0.4,0,1v46c0,0.6,0.4,1,1,1h46c0.6,0,1-0.4,1-1V1C48,0.4,47.6,0,47,0z M46,46H2V10h44V46z M46,8H2V2h44V8z   " id="svg_3" fill="#ffffff" fill-opacity="1"/><path d="M42.9,4h-1.5c-0.6,0-1,0.4-1,1s0.4,1,1,1h1.5c0.6,0,1-0.4,1-1S43.4,4,42.9,4z" id="svg_4" fill="#ffffff" fill-opacity="1"/><path d="M37.1,4h-1.5c-0.6,0-1,0.4-1,1s0.4,1,1,1h1.5c0.6,0,1-0.4,1-1S37.6,4,37.1,4z" id="svg_5" fill="#ffffff" fill-opacity="1"/><path d="M31.2,4h-1.5c-0.6,0-1,0.4-1,1s0.4,1,1,1h1.5c0.6,0,1-0.4,1-1S31.8,4,31.2,4z" id="svg_6" fill="#ffffff" fill-opacity="1"/><path d="M21.2,4H4.8c-0.6,0-1,0.4-1,1s0.4,1,1,1h16.4c0.6,0,1-0.4,1-1S21.8,4,21.2,4z" id="svg_7" fill="#ffffff" fill-opacity="1"/><path d="M33.6,14.8h9.3c0.6,0,1-0.4,1-1s-0.4-1-1-1h-9.3c-0.6,0-1,0.4-1,1S33,14.8,33.6,14.8z" id="svg_8" fill="#ffffff" fill-opacity="1"/><path d="M33.6,21.9h9.3c0.6,0,1-0.4,1-1s-0.4-1-1-1h-9.3c-0.6,0-1,0.4-1,1S33,21.9,33.6,21.9z" id="svg_9" fill="#ffffff" fill-opacity="1"/><path d="M33.6,29h9.3c0.6,0,1-0.4,1-1s-0.4-1-1-1h-9.3c-0.6,0-1,0.4-1,1S33,29,33.6,29z" id="svg_10" fill="#ffffff" fill-opacity="1"/><path d="M33.6,36h9.3c0.6,0,1-0.4,1-1s-0.4-1-1-1h-9.3c-0.6,0-1,0.4-1,1S33,36,33.6,36z" id="svg_11" fill="#ffffff" fill-opacity="1"/><path d="M5.6,43.1h37.3c0.6,0,1-0.4,1-1s-0.4-1-1-1H5.6c-0.6,0-1,0.4-1,1S5,43.1,5.6,43.1z" id="svg_12" fill="#ffffff" fill-opacity="1"/></g></g></svg>