<svg xmlns="http://www.w3.org/2000/svg" data-name="Layer 1" width="100" height="125"><rect id="backgroundrect" width="100%" height="100%" x="0" y="0" fill="none" stroke="none"/><title>05</title><g class="currentLayer" style=""><title>Layer 1</title><path d="M17.18,84.42H82.82a9,9,0,0,0,9-9V36.25a9,9,0,0,0-9-9H65.48V21.58a6,6,0,0,0-6-6h-19a6,6,0,0,0-6,6v5.67H17.18a9,9,0,0,0-9,9V75.42A9,9,0,0,0,17.18,84.42ZM72.4,29.25,89.82,46.67V65L72.4,82.42H27.6L10.18,65V46.67L27.6,29.25ZM89.82,75.42a7,7,0,0,1-7,7H75.23L89.82,67.83Zm-7-46.17a7,7,0,0,1,7,7v7.59L75.23,29.25Zm-46.3-7.67a4,4,0,0,1,4-4h19a4,4,0,0,1,4,4v5.67h-27ZM10.18,36.25a7,7,0,0,1,7-7h7.59L10.18,43.84Zm0,31.58L24.77,82.42H17.18a7,7,0,0,1-7-7Z" id="svg_1" class="selected" fill="#ffffff" fill-opacity="1"/></g></svg>